<svg xmlns="http://www.w3.org/2000/svg" width="128" height="128" viewBox="0 0 128 128" fill="none">
  <!-- Фон -->
  <rect x="0" y="0" width="128" height="128" rx="20" fill="#FFFFFF"/>

  <!-- Логотип Beeline: упрощённая буква B в стиле бренда -->
  <path d="M45 40C45 34.477 49.477 30 55 30H85C90.523 30 95 34.477 95 40V88C95 93.523 90.523 98 85 98H55C49.477 98 45 93.523 45 88V40Z" fill="#E60012"/>
  <path d="M58 44C58 41.791 59.791 39 62 39H82C84.209 39 86 41.791 86 44V61.5C86 63.709 84.209 66 82 66H73V72H82C84.209 72 86 74.791 86 77V90C86 92.209 84.209 94 82 94H62C59.791 94 58 91.209 58 89V44Z" fill="white"/>
  <path d="M73 66V60H82C84.209 60 86 57.209 86 55V44L73 55V66Z" fill="#E60012"/>

  <!-- Маленький информационный значок -->
  <circle cx="105" cy="25" r="10" fill="#4A90E2"/>
  <text x="105" y="29" text-anchor="middle" font-size="10" font-family="Arial" fill="white">i</text>
</svg>
